<svg xmlns="http://www.w3.org/2000/svg" width="512" height="512" viewBox="0 0 512 512" role="img" aria-labelledby="title">
  <title id="title">CirroFlow Technologies icon</title>
  <defs>
    <linearGradient id="blue" x1="0" y1="0" x2="1" y2="1">
      <stop offset="0" stop-color="#4F8CFF"/>
      <stop offset="0.55" stop-color="#2563EB"/>
      <stop offset="1" stop-color="#1D4ED8"/>
    </linearGradient>
  </defs>
  <rect width="512" height="512" rx="96" fill="#05070A"/>
  <g transform="translate(38 39) scale(.85)">
    <path d="M95 295 C63 292 38 267 38 234 C38 200 66 172 101 172 C109 120 153 80 207 80 C260 80 304 119 315 169 C346 171 373 185 392 207" fill="none" stroke="url(#blue)" stroke-width="46" stroke-linecap="round" stroke-linejoin="round"/>
    <path d="M86 430 L240 238 L333 238 L190 430 Z" fill="url(#blue)"/>
    <path d="M252 430 L364 238 L449 238 L344 430 Z" fill="url(#blue)" opacity="0.95"/>
    <path d="M311 236 C371 235 426 220 475 190 C454 222 427 247 389 263 C358 276 327 280 298 280 Z" fill="url(#blue)"/>
    <path d="M234 430 L364 238" stroke="#05070A" stroke-width="24" stroke-linecap="round" opacity="0.92"/>
  </g>
</svg>
