<svg xmlns="http://www.w3.org/2000/svg" width="1200" height="630" viewBox="0 0 1200 630" role="img" aria-labelledby="title desc">
  <title id="title">CirroFlow Technology Partners social preview</title>
  <desc id="desc">CirroFlow Technology Partners social sharing card — websites, AI search and automation for small business.</desc>
  <defs>
    <linearGradient id="blue" x1="0" y1="0" x2="1" y2="1">
      <stop offset="0" stop-color="#4F8CFF"/>
      <stop offset="0.55" stop-color="#2563EB"/>
      <stop offset="1" stop-color="#1D4ED8"/>
    </linearGradient>
  </defs>
  <rect width="1200" height="630" fill="#000"/>
  <path d="M760-140c183 62 287 170 314 326 28 156-49 303-230 441" fill="none" stroke="#2563EB" stroke-width="120" stroke-opacity=".28"/>
  <g transform="translate(80 78) scale(.24)">
    <path d="M95 295 C63 292 38 267 38 234 C38 200 66 172 101 172 C109 120 153 80 207 80 C260 80 304 119 315 169 C346 171 373 185 392 207" fill="none" stroke="url(#blue)" stroke-width="46" stroke-linecap="round" stroke-linejoin="round"/>
    <path d="M86 430 L240 238 L333 238 L190 430 Z" fill="url(#blue)"/>
    <path d="M252 430 L364 238 L449 238 L344 430 Z" fill="url(#blue)" opacity="0.95"/>
    <path d="M311 236 C371 235 426 220 475 190 C454 222 427 247 389 263 C358 276 327 280 298 280 Z" fill="url(#blue)"/>
    <path d="M234 430 L364 238" stroke="#000" stroke-width="24" stroke-linecap="round" opacity="0.92"/>
  </g>
  <text x="208" y="128" font-family="Inter, Arial, sans-serif" font-size="30" font-weight="800" fill="#fff">CirroFlow</text>
  <text x="208" y="164" font-family="Inter, Arial, sans-serif" font-size="18" font-weight="700" fill="#60A5FA">TECHNOLOGY PARTNERS</text>
  <text x="88" y="302" font-family="Inter, Arial, sans-serif" font-size="84" font-weight="900" fill="#fff">Get found.</text>
  <text x="88" y="396" font-family="Inter, Arial, sans-serif" font-size="84" font-weight="900" fill="#60A5FA">Stay booked.</text>
  <text x="88" y="472" font-family="Inter, Arial, sans-serif" font-size="28" font-weight="500" fill="#BFC7D5">Websites, SEO, AI search optimization, AI call agents,</text>
  <text x="88" y="510" font-family="Inter, Arial, sans-serif" font-size="28" font-weight="500" fill="#BFC7D5">and automation — fixed packages, flat monthly pricing.</text>
  <text x="88" y="576" font-family="Inter, Arial, sans-serif" font-size="20" font-weight="800" fill="#60A5FA">cirroflowtech.com</text>
</svg>
