<svg xmlns="http://www.w3.org/2000/svg" width="1210" height="255" viewBox="85 150 1210 255" role="img" aria-labelledby="title desc">
  <title id="title">CirroFlow Technologies Primary Horizontal Logo Light</title>
  <desc id="desc">Primary horizontal CirroFlow Technologies logo with electric blue cloud path mark on a light background.</desc>
  <defs>
    <linearGradient id="blue" x1="0" y1="0" x2="1" y2="1">
      <stop offset="0" stop-color="#4F8CFF"/>
      <stop offset="0.55" stop-color="#2563EB"/>
      <stop offset="1" stop-color="#1D4ED8"/>
    </linearGradient>
  </defs>
  <g transform="translate(95 116) scale(.62)">
    <path d="M95 295 C63 292 38 267 38 234 C38 200 66 172 101 172 C109 120 153 80 207 80 C260 80 304 119 315 169 C346 171 373 185 392 207" fill="none" stroke="url(#blue)" stroke-width="46" stroke-linecap="round" stroke-linejoin="round"/>
    <path d="M86 430 L240 238 L333 238 L190 430 Z" fill="url(#blue)"/>
    <path d="M252 430 L364 238 L449 238 L344 430 Z" fill="url(#blue)" opacity="0.95"/>
    <path d="M311 236 C371 235 426 220 475 190 C454 222 427 247 389 263 C358 276 327 280 298 280 Z" fill="url(#blue)"/>
    <path d="M234 430 L364 238" stroke="#ffffff" stroke-width="24" stroke-linecap="round" opacity="0.92"/>
  </g>
  <line x1="450" y1="165" x2="450" y2="435" stroke="#111111" stroke-opacity=".18" stroke-width="2"/>
  <text x="515" y="300" fill="#05070A" font-family="Inter, Arial, Helvetica, sans-serif" font-size="112" font-weight="800" letter-spacing="-4">CirroFlow</text>
  <text x="525" y="382" fill="#2563EB" font-family="Inter, Arial, Helvetica, sans-serif" font-size="37" font-weight="800" letter-spacing="27">TECHNOLOGIES</text>
</svg>
