<svg xmlns="http://www.w3.org/2000/svg" xmlns:xlink="http://www.w3.org/1999/xlink" width="1080" zoomAndPan="magnify" viewBox="140 625 1080 255" height="255" preserveAspectRatio="xMidYMid meet" version="1.0"><path fill="#0f5dfa" d="M 552.421875 690.796875 C 553.988281 690.816406 555.546875 690.757812 557.113281 690.699219 C 558.574219 690.796875 558.574219 690.796875 560.417969 692.027344 C 562.339844 692.128906 562.339844 692.128906 564.109375 692.027344 L 564.722656 693.257812 L 567.183594 693.257812 C 568.125 694.105469 568.125 694.105469 569.027344 695.101562 C 570.546875 695.96875 572.085938 696.800781 573.640625 697.601562 C 578.066406 699.898438 578.066406 699.898438 580.097656 701.253906 L 580.097656 702.480469 L 581.484375 702.957031 C 583.265625 703.753906 584.242188 704.554688 585.59375 705.941406 L 586.886719 707.25 C 588.050781 708.585938 588.90625 709.929688 589.824219 711.4375 C 590.625 712.703125 590.625 712.703125 591.78125 713.550781 C 594.140625 713.816406 596.257812 713.535156 598.546875 712.9375 L 599.164062 712.324219 C 606.007812 711.65625 611.910156 712.789062 618.226562 715.398438 C 620.582031 716.472656 622.902344 717.546875 624.992188 719.085938 L 625.609375 720.933594 L 626.835938 720.933594 L 626.835938 722.164062 L 628.066406 722.164062 L 628.066406 723.390625 L 629.296875 723.390625 L 629.296875 724.621094 L 631.140625 725.238281 L 631.140625 726.46875 L 632.371094 726.46875 L 633.601562 728.3125 L 633.601562 730.15625 L 634.832031 730.15625 L 635.359375 731.621094 C 636.863281 735.339844 636.863281 735.339844 639.480469 738.308594 C 641.714844 739.726562 644.082031 740.816406 646.515625 741.84375 L 646.515625 743.074219 L 647.746094 743.417969 C 651.09375 745.023438 653.9375 747.585938 656.050781 750.644531 C 656.972656 752.296875 656.972656 752.296875 656.972656 753.527344 L 658.203125 753.527344 C 658.785156 754.730469 659.359375 755.933594 659.933594 757.140625 L 660.90625 759.171875 C 663.324219 764.71875 664.03125 769.660156 663.96875 775.707031 L 663.988281 777.792969 C 663.964844 785.355469 661.320312 790.757812 657.585938 797.191406 L 656.359375 797.191406 L 655.742188 799.652344 L 654.511719 799.652344 L 654.511719 800.882812 L 653.28125 800.882812 L 652.667969 802.726562 C 651.375 803.710938 650.042969 804.632812 648.671875 805.496094 L 647.488281 806.246094 C 642.855469 809.105469 638.390625 810.539062 632.90625 810.78125 C 631.410156 810.800781 629.910156 810.808594 628.410156 810.804688 L 626.675781 810.808594 C 624.761719 810.8125 622.851562 810.8125 620.9375 810.8125 L 616.816406 810.816406 C 613.085938 810.824219 609.355469 810.824219 605.625 810.824219 L 598.628906 810.828125 C 590.902344 810.835938 583.179688 810.835938 575.453125 810.835938 L 572.933594 810.835938 C 566.191406 810.835938 559.449219 810.839844 552.710938 810.851562 C 545.777344 810.859375 538.839844 810.863281 531.90625 810.863281 C 528.019531 810.863281 524.132812 810.863281 520.242188 810.871094 C 516.582031 810.878906 512.921875 810.878906 509.261719 810.875 C 507.925781 810.871094 506.585938 810.875 505.25 810.878906 C 485.769531 810.929688 485.769531 810.929688 477.390625 806.417969 C 472.417969 803.160156 467.402344 798.753906 464.476562 793.503906 C 462.558594 789.273438 461.011719 785.242188 460.789062 780.585938 L 460.695312 779.046875 C 460.535156 774.597656 461.320312 770.679688 462.632812 766.441406 L 463.109375 764.867188 C 465.171875 758.953125 469.265625 754.15625 473.703125 749.835938 L 474.742188 748.722656 L 475.546875 747.992188 L 476.777344 747.992188 L 476.777344 746.761719 C 481.027344 742.949219 486.898438 740.820312 492.152344 738.765625 L 493.382812 738.765625 L 493.382812 737.539062 L 495.035156 737.574219 C 496.847656 737.542969 498.386719 737.304688 500.148438 736.921875 L 500.152344 735.699219 C 500.324219 731.503906 501.164062 727.808594 502.492188 723.855469 L 502.953125 722.46875 C 504.039062 719.355469 505.386719 716.472656 506.914062 713.550781 L 508.140625 713.550781 L 509.371094 709.863281 L 510.601562 709.863281 L 511.179688 708.710938 L 512.449219 706.171875 L 513.675781 706.171875 L 513.675781 704.941406 L 514.90625 704.941406 L 514.90625 703.710938 L 516.136719 703.710938 L 516.136719 702.480469 C 517.015625 701.554688 517.015625 701.554688 518.175781 700.558594 L 519.320312 699.554688 L 520.441406 698.792969 L 522.289062 698.792969 L 522.289062 697.5625 C 528.605469 694.066406 534.140625 691.800781 541.351562 690.796875 L 543.609375 690.453125 C 546.632812 690.050781 549.488281 689.820312 552.421875 690.796875 M 539.238281 697.984375 L 537.683594 698.320312 C 533.847656 699.199219 530.558594 700.390625 527.207031 702.480469 L 525.425781 703.527344 C 522.351562 705.386719 520.1875 707 517.984375 709.863281 L 516.753906 710.476562 C 515.730469 711.960938 515.730469 711.960938 514.90625 713.550781 L 514.90625 714.78125 L 513.675781 714.78125 C 512.878906 716.535156 512.085938 718.292969 511.292969 720.046875 L 510.613281 721.539062 C 508.855469 725.457031 507.332031 729.132812 507.449219 733.5 L 507.484375 735.113281 L 507.527344 736.308594 C 509.808594 737.023438 511.992188 736.988281 514.371094 737.039062 C 520.253906 737.273438 525.425781 739.175781 530.898438 741.226562 L 532.742188 741.84375 L 531.511719 746.148438 C 530.15625 746.523438 530.15625 746.523438 528.4375 746.761719 C 527.023438 746.347656 527.023438 746.347656 525.515625 745.6875 C 522.492188 744.507812 519.550781 743.789062 516.367188 743.226562 L 515.078125 742.988281 C 509.871094 742.109375 505.101562 742.367188 499.957031 743.496094 L 498.417969 743.828125 C 491.410156 745.414062 485.4375 748.042969 480.101562 752.921875 L 479.160156 753.796875 L 478.207031 754.664062 C 476.308594 756.410156 474.59375 758.191406 473.085938 760.292969 L 473.085938 761.523438 L 471.859375 761.523438 C 471.25 762.980469 470.648438 764.441406 470.050781 765.90625 L 469.535156 767.144531 C 467.421875 772.332031 467.109375 777.476562 467.550781 783.046875 C 468.117188 785.257812 468.964844 787.175781 470.011719 789.199219 L 470.753906 790.71875 C 472.191406 793.523438 473.515625 795.378906 476.164062 797.191406 L 477.125 798.230469 C 477.992188 799.136719 477.992188 799.136719 479.351562 799.460938 L 480.46875 799.652344 L 480.46875 800.882812 L 482.925781 800.882812 L 482.925781 802.113281 C 490.433594 804.671875 497.355469 804.890625 505.222656 804.765625 C 506.378906 804.757812 507.535156 804.75 508.691406 804.746094 C 510.3125 804.734375 511.929688 804.722656 513.550781 804.707031 C 515.585938 804.671875 517.269531 804.605469 519.210938 803.957031 L 519.167969 801.90625 C 519.042969 793.679688 520.089844 787.117188 523.308594 779.53125 C 524.144531 777.632812 524.144531 777.632812 524.476562 776.050781 C 524.566406 775.71875 524.65625 775.390625 524.746094 775.050781 L 525.976562 774.4375 C 526.59375 773.480469 527.183594 772.507812 527.746094 771.515625 C 529.0625 769.253906 530.476562 767.246094 532.128906 765.210938 L 532.128906 763.980469 L 533.359375 763.980469 C 534.203125 763.1875 535.023438 762.367188 535.816406 761.523438 C 535.09375 763.230469 534.175781 764.515625 532.972656 765.902344 L 531.511719 767.671875 L 531.511719 768.902344 L 530.28125 768.902344 C 529.691406 769.933594 529.105469 770.964844 528.523438 771.996094 C 527.917969 773.042969 527.277344 774.070312 526.628906 775.089844 C 523.605469 780.390625 521.050781 787.292969 521.058594 793.460938 C 521.28125 797.265625 521.835938 800.527344 523.515625 803.957031 C 525.519531 804.625 526.96875 804.644531 529.070312 804.640625 L 531.382812 804.640625 L 533.882812 804.632812 L 536.441406 804.628906 C 538.683594 804.628906 540.921875 804.621094 543.164062 804.613281 C 545.453125 804.609375 547.742188 804.605469 550.027344 804.601562 C 554.515625 804.597656 559.003906 804.585938 563.492188 804.574219 L 564.109375 802.726562 C 563.523438 801.53125 563.523438 801.53125 562.648438 800.34375 C 561.398438 798.472656 560.632812 797.019531 560.417969 794.730469 L 562.261719 795.347656 L 562.878906 797.191406 L 564.109375 797.191406 L 564.644531 798.574219 C 565.222656 799.988281 565.863281 801.371094 566.566406 802.726562 L 567.796875 802.726562 L 567.796875 803.957031 C 570.058594 804.667969 572.183594 804.644531 574.546875 804.640625 L 575.835938 804.640625 C 577.242188 804.640625 578.644531 804.636719 580.050781 804.632812 L 582.976562 804.628906 C 585.539062 804.628906 588.105469 804.621094 590.667969 804.613281 C 593.285156 804.609375 595.902344 804.605469 598.519531 804.601562 C 603.65625 804.597656 608.789062 804.585938 613.921875 804.574219 L 613.921875 802.113281 L 611.847656 800.882812 L 610.679688 800.191406 C 609.632812 799.558594 609.632812 799.558594 608.386719 799.652344 L 607.773438 797.808594 C 606.234375 797.058594 606.234375 797.058594 604.699219 796.578125 L 604.699219 795.347656 C 603.5625 794.316406 603.5625 794.316406 602.238281 793.503906 L 601.007812 793.503906 L 600.613281 792.472656 C 599.488281 790.542969 597.910156 789.257812 596.242188 787.8125 C 593.324219 785.214844 590.871094 782.628906 588.707031 779.355469 L 587.691406 777.890625 C 585.121094 774.136719 585.121094 774.136719 584.402344 771.976562 L 583.171875 771.976562 L 582.945312 770.621094 C 582.5625 768.933594 581.992188 767.558594 581.289062 765.980469 C 579.375 760.816406 579.558594 755.273438 580.367188 749.882812 C 581.289062 746.269531 583.171875 743.335938 585.25 740.269531 C 586.09375 739.007812 586.835938 737.683594 587.476562 736.308594 L 589.324219 736.308594 L 588.09375 739.382812 L 586.863281 739.382812 C 582.460938 746.273438 582.460938 746.273438 580.710938 754.140625 C 580.75 760.914062 582.3125 766.394531 585.671875 772.207031 C 586.097656 772.929688 586.527344 773.652344 586.960938 774.375 C 588.09375 776.28125 588.09375 776.28125 588.667969 777.574219 C 589.632812 779.292969 590.976562 780.457031 592.398438 781.816406 C 593.066406 782.5 593.738281 783.179688 594.402344 783.867188 L 596.511719 786.007812 L 597.59375 787.121094 C 598.503906 788.042969 599.445312 788.929688 600.390625 789.8125 L 601.621094 789.8125 L 601.621094 791.042969 C 604.628906 793.789062 607.96875 796.324219 611.460938 798.421875 L 612.691406 798.421875 L 612.691406 799.652344 C 613.804688 800.59375 613.804688 800.59375 615.230469 801.496094 L 616.65625 802.457031 C 620.238281 804.472656 623.46875 804.808594 627.492188 804.804688 L 629.046875 804.804688 C 634.46875 804.703125 639.234375 803.414062 644.058594 800.882812 L 644.058594 799.652344 L 645.210938 799.382812 C 646.539062 799.078125 646.539062 799.078125 647.746094 798.421875 L 647.746094 797.191406 L 648.976562 797.191406 L 648.976562 795.960938 L 650.207031 795.960938 C 653.527344 792.191406 655.738281 787.898438 656.972656 783.046875 C 657.339844 780.789062 657.5 778.566406 657.585938 776.28125 L 657.703125 774.929688 C 657.992188 769.957031 656.371094 765.117188 654.472656 760.570312 C 651.933594 755.59375 647.90625 751.304688 643.441406 747.992188 C 642.101562 747.515625 642.101562 747.515625 640.984375 747.378906 L 640.984375 746.148438 L 639.363281 745.644531 C 637.015625 744.765625 635.0625 743.871094 632.988281 742.457031 C 631.695312 740.367188 630.925781 738.339844 630.105469 736.027344 C 628.390625 731.402344 625.394531 727.761719 621.65625 724.597656 L 620.6875 724.007812 L 618.84375 724.007812 L 618.84375 722.777344 C 611.308594 719.597656 604.855469 718.339844 596.625 719.316406 C 595.019531 719.667969 593.800781 720.089844 592.398438 720.933594 L 592.398438 722.164062 L 591.128906 722.277344 C 587.953125 723.15625 585.703125 725.210938 583.328125 727.429688 C 582.144531 728.707031 581.050781 729.933594 580.097656 731.386719 L 580.097656 732.617188 L 578.867188 732.617188 L 578.253906 731.386719 C 577.242188 730.941406 576.214844 730.53125 575.175781 730.15625 C 574.945312 728.890625 574.945312 728.890625 575.175781 727.082031 C 576.507812 725.128906 577.960938 723.230469 580.097656 722.164062 L 580.097656 720.933594 L 581.171875 720.433594 C 582.578125 719.691406 583.769531 718.835938 585.015625 717.855469 L 584.402344 714.167969 L 583.171875 714.167969 L 582.710938 713.015625 C 582.03125 711.617188 582.03125 711.617188 580.636719 710.9375 L 579.484375 710.476562 L 579.484375 709.246094 C 578.261719 708.414062 577.03125 707.59375 575.792969 706.789062 L 575.175781 705.558594 C 573.753906 705.105469 572.320312 704.695312 570.871094 704.328125 L 570.871094 703.097656 C 563.636719 699.046875 554.832031 696.785156 546.523438 696.867188 C 544.046875 697 541.664062 697.460938 539.238281 697.984375 " fill-opacity="1" fill-rule="nonzero"/><path fill="#ffffff" d="M 876.527344 699.40625 L 906.046875 699.40625 L 906.046875 700.636719 L 909.738281 700.636719 L 909.738281 701.867188 L 910.96875 701.867188 L 910.96875 703.097656 L 913.425781 703.097656 L 913.425781 704.328125 L 914.65625 704.328125 L 914.65625 705.558594 L 915.886719 705.558594 L 915.886719 706.789062 L 917.117188 706.789062 L 917.117188 709.246094 L 918.347656 709.246094 L 918.347656 712.9375 L 919.578125 712.9375 L 919.578125 722.777344 L 918.347656 722.777344 L 918.347656 726.46875 L 917.117188 726.46875 L 917.117188 728.925781 L 915.886719 728.925781 L 915.886719 730.15625 L 914.65625 730.15625 L 914.65625 731.386719 L 913.425781 731.386719 L 913.425781 732.617188 L 912.199219 732.617188 L 912.199219 733.847656 L 909.738281 733.847656 L 909.738281 735.078125 L 906.046875 735.078125 L 906.046875 736.308594 L 890.058594 736.308594 L 890.058594 754.757812 L 876.527344 754.757812 Z M 890.058594 710.476562 L 890.058594 726.46875 L 901.128906 726.46875 L 901.128906 725.238281 L 903.585938 725.238281 L 903.585938 724.007812 L 904.816406 724.007812 L 904.816406 722.777344 L 906.046875 722.777344 L 906.046875 714.167969 L 904.816406 714.167969 L 904.816406 712.9375 L 903.585938 712.9375 L 903.585938 711.707031 L 901.128906 711.707031 L 901.128906 710.476562 Z M 703.097656 698.175781 L 705.558594 698.175781 L 705.558594 699.40625 L 712.9375 699.40625 L 712.9375 700.636719 L 715.398438 700.636719 L 715.398438 701.867188 L 717.859375 701.867188 L 717.859375 703.097656 L 720.316406 703.097656 L 720.316406 704.328125 L 721.546875 704.328125 L 721.546875 705.558594 L 722.777344 705.558594 L 722.777344 706.789062 L 724.007812 706.789062 L 724.007812 709.246094 L 725.238281 709.246094 L 725.238281 711.707031 L 726.46875 711.707031 L 726.46875 714.167969 L 727.699219 714.167969 L 727.699219 719.085938 L 714.167969 719.085938 L 714.167969 715.398438 L 712.9375 715.398438 L 712.9375 712.9375 L 711.707031 712.9375 L 711.707031 711.707031 L 709.246094 711.707031 L 709.246094 710.476562 L 698.175781 710.476562 L 698.175781 711.707031 L 696.949219 711.707031 L 696.949219 712.9375 L 695.71875 712.9375 L 695.71875 714.167969 L 694.488281 714.167969 L 694.488281 715.398438 L 693.257812 715.398438 L 693.257812 717.855469 L 692.027344 717.855469 L 692.027344 722.777344 L 690.796875 722.777344 L 690.796875 731.386719 L 692.027344 731.386719 L 692.027344 736.308594 L 693.257812 736.308594 L 693.257812 738.765625 L 694.488281 738.765625 L 694.488281 739.996094 L 695.71875 739.996094 L 695.71875 741.226562 L 696.949219 741.226562 L 696.949219 742.457031 L 698.175781 742.457031 L 698.175781 743.6875 L 709.246094 743.6875 L 709.246094 742.457031 L 711.707031 742.457031 L 711.707031 741.226562 L 712.9375 741.226562 L 712.9375 738.765625 L 714.167969 738.765625 L 714.167969 735.078125 L 727.699219 735.078125 L 727.699219 739.996094 L 726.46875 739.996094 L 726.46875 742.457031 L 725.238281 742.457031 L 725.238281 744.917969 L 724.007812 744.917969 L 724.007812 746.148438 L 722.777344 746.148438 L 722.777344 748.605469 L 721.546875 748.605469 L 721.546875 749.835938 L 719.085938 749.835938 L 719.085938 751.066406 L 717.859375 751.066406 L 717.859375 752.296875 L 715.398438 752.296875 L 715.398438 753.527344 L 712.9375 753.527344 L 712.9375 754.757812 L 705.558594 754.757812 L 705.558594 755.988281 L 703.097656 755.988281 L 703.097656 754.757812 L 695.71875 754.757812 L 695.71875 753.527344 L 692.027344 753.527344 L 692.027344 752.296875 L 689.566406 752.296875 L 689.566406 751.066406 L 688.335938 751.066406 L 688.335938 749.835938 L 687.109375 749.835938 L 687.109375 748.605469 L 685.878906 748.605469 L 685.878906 747.378906 L 684.648438 747.378906 L 684.648438 746.148438 L 683.417969 746.148438 L 683.417969 744.917969 L 682.1875 744.917969 L 682.1875 742.457031 L 680.957031 742.457031 L 680.957031 739.996094 L 679.726562 739.996094 L 679.726562 736.308594 L 678.496094 736.308594 L 678.496094 717.855469 L 679.726562 717.855469 L 679.726562 714.167969 L 680.957031 714.167969 L 680.957031 711.707031 L 682.1875 711.707031 L 682.1875 709.246094 L 683.417969 709.246094 L 683.417969 708.015625 L 684.648438 708.015625 L 684.648438 706.789062 L 685.878906 706.789062 L 685.878906 705.558594 L 687.109375 705.558594 L 687.109375 704.328125 L 688.335938 704.328125 L 688.335938 703.097656 L 689.566406 703.097656 L 689.566406 701.867188 L 692.027344 701.867188 L 692.027344 700.636719 L 695.71875 700.636719 L 695.71875 699.40625 L 703.097656 699.40625 Z M 998.296875 699.40625 L 1011.828125 699.40625 L 1011.828125 720.316406 L 1013.058594 720.316406 L 1013.058594 719.085938 L 1014.289062 719.085938 L 1014.289062 717.855469 L 1015.515625 717.855469 L 1015.515625 716.628906 L 1016.746094 716.628906 L 1016.746094 715.398438 L 1022.898438 715.398438 L 1022.898438 714.167969 L 1025.355469 714.167969 L 1025.355469 715.398438 L 1030.277344 715.398438 L 1030.277344 716.628906 L 1031.507812 716.628906 L 1031.507812 717.855469 L 1032.738281 717.855469 L 1032.738281 719.085938 L 1033.96875 719.085938 L 1033.96875 720.316406 L 1035.199219 720.316406 L 1035.199219 722.777344 L 1036.425781 722.777344 L 1036.425781 726.46875 L 1037.65625 726.46875 L 1037.65625 754.757812 L 1024.128906 754.757812 L 1024.128906 727.699219 L 1022.898438 727.699219 L 1022.898438 726.46875 L 1021.667969 726.46875 L 1021.667969 725.238281 L 1014.289062 725.238281 L 1014.289062 726.46875 L 1013.058594 726.46875 L 1013.058594 727.699219 L 1011.828125 727.699219 L 1011.828125 754.757812 L 998.296875 754.757812 Z M 940.488281 714.167969 L 944.175781 714.167969 L 944.175781 715.398438 L 951.558594 715.398438 L 951.558594 716.628906 L 954.015625 716.628906 L 954.015625 717.855469 L 956.476562 717.855469 L 956.476562 719.085938 L 957.707031 719.085938 L 957.707031 720.316406 L 958.9375 720.316406 L 958.9375 721.546875 L 960.167969 721.546875 L 960.167969 725.238281 L 961.398438 725.238281 L 961.398438 754.757812 L 949.097656 754.757812 L 949.097656 749.835938 L 947.867188 749.835938 L 947.867188 751.066406 L 946.636719 751.066406 L 946.636719 752.296875 L 945.40625 752.296875 L 945.40625 753.527344 L 942.949219 753.527344 L 942.949219 754.757812 L 938.027344 754.757812 L 938.027344 755.988281 L 935.566406 755.988281 L 935.566406 754.757812 L 929.417969 754.757812 L 929.417969 753.527344 L 928.1875 753.527344 L 928.1875 752.296875 L 926.957031 752.296875 L 926.957031 751.066406 L 925.726562 751.066406 L 925.726562 749.835938 L 924.496094 749.835938 L 924.496094 747.378906 L 923.265625 747.378906 L 923.265625 739.996094 L 924.496094 739.996094 L 924.496094 737.539062 L 925.726562 737.539062 L 925.726562 736.308594 L 926.957031 736.308594 L 926.957031 735.078125 L 928.1875 735.078125 L 928.1875 733.847656 L 929.417969 733.847656 L 929.417969 732.617188 L 933.109375 732.617188 L 933.109375 731.386719 L 941.71875 731.386719 L 941.71875 730.15625 L 946.636719 730.15625 L 946.636719 728.925781 L 947.867188 728.925781 L 947.867188 725.238281 L 946.636719 725.238281 L 946.636719 724.007812 L 939.257812 724.007812 L 939.257812 725.238281 L 938.027344 725.238281 L 938.027344 726.46875 L 936.796875 726.46875 L 936.796875 727.699219 L 925.726562 727.699219 L 925.726562 722.777344 L 926.957031 722.777344 L 926.957031 720.316406 L 928.1875 720.316406 L 928.1875 719.085938 L 929.417969 719.085938 L 929.417969 717.855469 L 931.878906 717.855469 L 931.878906 716.628906 L 934.335938 716.628906 L 934.335938 715.398438 L 940.488281 715.398438 Z M 942.949219 737.539062 L 942.949219 738.765625 L 938.027344 738.765625 L 938.027344 739.996094 L 936.796875 739.996094 L 936.796875 741.226562 L 935.566406 741.226562 L 935.566406 743.6875 L 936.796875 743.6875 L 936.796875 746.148438 L 945.40625 746.148438 L 945.40625 744.917969 L 946.636719 744.917969 L 946.636719 743.6875 L 947.867188 743.6875 L 947.867188 737.539062 Z M 817.488281 714.167969 L 821.175781 714.167969 L 821.175781 715.398438 L 828.558594 715.398438 L 828.558594 716.628906 L 831.015625 716.628906 L 831.015625 717.855469 L 833.476562 717.855469 L 833.476562 719.085938 L 834.707031 719.085938 L 834.707031 720.316406 L 835.9375 720.316406 L 835.9375 722.777344 L 837.167969 722.777344 L 837.167969 754.757812 L 824.867188 754.757812 L 824.867188 749.835938 L 823.636719 749.835938 L 823.636719 752.296875 L 822.40625 752.296875 L 822.40625 753.527344 L 819.949219 753.527344 L 819.949219 754.757812 L 815.027344 754.757812 L 815.027344 755.988281 L 811.335938 755.988281 L 811.335938 754.757812 L 806.417969 754.757812 L 806.417969 753.527344 L 803.957031 753.527344 L 803.957031 752.296875 L 802.726562 752.296875 L 802.726562 749.835938 L 801.496094 749.835938 L 801.496094 748.605469 L 800.265625 748.605469 L 800.265625 739.996094 L 801.496094 739.996094 L 801.496094 737.539062 L 802.726562 737.539062 L 802.726562 735.078125 L 803.957031 735.078125 L 803.957031 733.847656 L 806.417969 733.847656 L 806.417969 732.617188 L 810.109375 732.617188 L 810.109375 731.386719 L 818.71875 731.386719 L 818.71875 730.15625 L 823.636719 730.15625 L 823.636719 728.925781 L 824.867188 728.925781 L 824.867188 725.238281 L 823.636719 725.238281 L 823.636719 724.007812 L 815.027344 724.007812 L 815.027344 725.238281 L 813.796875 725.238281 L 813.796875 727.699219 L 801.496094 727.699219 L 801.496094 725.238281 L 802.726562 725.238281 L 802.726562 721.546875 L 803.957031 721.546875 L 803.957031 720.316406 L 805.1875 720.316406 L 805.1875 719.085938 L 806.417969 719.085938 L 806.417969 717.855469 L 808.878906 717.855469 L 808.878906 716.628906 L 811.335938 716.628906 L 811.335938 715.398438 L 817.488281 715.398438 Z M 818.71875 737.539062 L 818.71875 738.765625 L 815.027344 738.765625 L 815.027344 739.996094 L 813.796875 739.996094 L 813.796875 741.226562 L 812.566406 741.226562 L 812.566406 744.917969 L 813.796875 744.917969 L 813.796875 746.148438 L 821.175781 746.148438 L 821.175781 744.917969 L 823.636719 744.917969 L 823.636719 742.457031 L 824.867188 742.457031 L 824.867188 737.539062 Z M 773.207031 714.167969 L 776.898438 714.167969 L 776.898438 715.398438 L 783.046875 715.398438 L 783.046875 716.628906 L 785.507812 716.628906 L 785.507812 717.855469 L 786.738281 717.855469 L 786.738281 719.085938 L 787.96875 719.085938 L 787.96875 720.316406 L 789.199219 720.316406 L 789.199219 721.546875 L 790.425781 721.546875 L 790.425781 722.777344 L 791.65625 722.777344 L 791.65625 725.238281 L 792.886719 725.238281 L 792.886719 727.699219 L 794.117188 727.699219 L 794.117188 737.539062 L 768.289062 737.539062 L 768.289062 741.226562 L 769.515625 741.226562 L 769.515625 743.6875 L 771.976562 743.6875 L 771.976562 744.917969 L 780.585938 744.917969 L 780.585938 743.6875 L 781.816406 743.6875 L 781.816406 742.457031 L 783.046875 742.457031 L 783.046875 741.226562 L 789.199219 741.226562 L 789.199219 742.457031 L 794.117188 742.457031 L 794.117188 743.6875 L 792.886719 743.6875 L 792.886719 747.378906 L 791.65625 747.378906 L 791.65625 748.605469 L 790.425781 748.605469 L 790.425781 749.835938 L 789.199219 749.835938 L 789.199219 751.066406 L 787.96875 751.066406 L 787.96875 752.296875 L 785.507812 752.296875 L 785.507812 753.527344 L 783.046875 753.527344 L 783.046875 754.757812 L 776.898438 754.757812 L 776.898438 755.988281 L 773.207031 755.988281 L 773.207031 754.757812 L 767.058594 754.757812 L 767.058594 753.527344 L 764.597656 753.527344 L 764.597656 752.296875 L 762.136719 752.296875 L 762.136719 751.066406 L 760.90625 751.066406 L 760.90625 749.835938 L 759.675781 749.835938 L 759.675781 748.605469 L 758.449219 748.605469 L 758.449219 746.148438 L 757.21875 746.148438 L 757.21875 743.6875 L 755.988281 743.6875 L 755.988281 739.996094 L 754.757812 739.996094 L 754.757812 730.15625 L 755.988281 730.15625 L 755.988281 726.46875 L 757.21875 726.46875 L 757.21875 724.007812 L 758.449219 724.007812 L 758.449219 721.546875 L 759.675781 721.546875 L 759.675781 720.316406 L 760.90625 720.316406 L 760.90625 719.085938 L 762.136719 719.085938 L 762.136719 717.855469 L 764.597656 717.855469 L 764.597656 716.628906 L 767.058594 716.628906 L 767.058594 715.398438 L 773.207031 715.398438 Z M 770.746094 725.238281 L 770.746094 726.46875 L 769.515625 726.46875 L 769.515625 727.699219 L 768.289062 727.699219 L 768.289062 730.15625 L 781.816406 730.15625 L 781.816406 727.699219 L 780.585938 727.699219 L 780.585938 726.46875 L 779.359375 726.46875 L 779.359375 725.238281 Z M 972.46875 704.328125 L 984.765625 704.328125 L 984.765625 715.398438 L 993.378906 715.398438 L 993.378906 725.238281 L 985.996094 725.238281 L 985.996094 726.46875 L 984.765625 726.46875 L 984.765625 741.226562 L 985.996094 741.226562 L 985.996094 743.6875 L 987.226562 743.6875 L 987.226562 744.917969 L 992.148438 744.917969 L 992.148438 746.148438 L 993.378906 746.148438 L 993.378906 754.757812 L 979.847656 754.757812 L 979.847656 753.527344 L 977.386719 753.527344 L 977.386719 752.296875 L 974.925781 752.296875 L 974.925781 749.835938 L 973.699219 749.835938 L 973.699219 747.378906 L 972.46875 747.378906 L 972.46875 725.238281 L 966.316406 725.238281 L 966.316406 715.398438 L 972.46875 715.398438 Z M 735.078125 699.40625 L 748.609375 699.40625 L 748.609375 754.757812 L 735.078125 754.757812 Z M 845.777344 715.398438 L 858.078125 715.398438 L 858.078125 720.316406 L 859.308594 720.316406 L 859.308594 719.085938 L 860.539062 719.085938 L 860.539062 717.855469 L 861.765625 717.855469 L 861.765625 716.628906 L 862.996094 716.628906 L 862.996094 715.398438 L 871.609375 715.398438 L 871.609375 725.238281 L 864.226562 725.238281 L 864.226562 726.46875 L 861.765625 726.46875 L 861.765625 727.699219 L 860.539062 727.699219 L 860.539062 728.925781 L 859.308594 728.925781 L 859.308594 731.386719 L 858.078125 731.386719 L 858.078125 754.757812 L 845.777344 754.757812 Z M 845.777344 715.398438 " fill-opacity="1" fill-rule="nonzero"/><path fill="#0f5cfa" d="M 928.800781 778.742188 C 930.609375 778.589844 930.609375 778.589844 932.492188 778.742188 L 933.722656 780.585938 C 933.800781 782.242188 933.800781 782.242188 933.722656 783.664062 L 938.640625 783.664062 L 941.582031 783.640625 L 945.101562 783.625 L 946.894531 783.609375 L 948.617188 783.601562 L 950.191406 783.59375 C 951.558594 783.664062 951.558594 783.664062 953.402344 784.277344 C 954.433594 785.722656 954.433594 785.722656 955.246094 787.96875 C 955.464844 790.304688 955.421875 792.617188 955.363281 794.964844 L 955.335938 796.867188 C 955.316406 798.410156 955.285156 799.953125 955.246094 801.496094 L 949.710938 801.496094 L 949.097656 787.96875 L 944.792969 788.582031 L 944.175781 801.496094 L 938.640625 801.496094 C 937.988281 798.316406 937.957031 795.269531 937.988281 792.042969 L 937.996094 790.492188 C 938.003906 789.238281 938.015625 787.988281 938.027344 786.738281 L 936.796875 786.738281 L 936.183594 787.96875 L 933.722656 787.96875 L 933.722656 797.191406 L 936.183594 797.191406 L 936.796875 801.496094 C 934.730469 801.640625 932.714844 801.710938 930.648438 801.496094 C 929.0625 800.339844 928.433594 799.535156 927.574219 797.808594 C 927.527344 796.140625 927.515625 794.476562 927.535156 792.808594 L 927.542969 791.40625 C 927.550781 790.257812 927.558594 789.113281 927.574219 787.96875 L 925.113281 786.738281 C 924.996094 785.277344 924.996094 785.277344 925.113281 783.664062 L 926.957031 782.433594 C 927.402344 781.421875 927.8125 780.398438 928.1875 779.355469 Z M 928.800781 778.742188 " fill-opacity="1" fill-rule="nonzero"/><path fill="#105dfa" d="M 830.007812 783.523438 C 830.566406 783.527344 831.125 783.535156 831.695312 783.542969 L 833.527344 783.554688 L 835.4375 783.585938 L 837.367188 783.601562 C 838.941406 783.617188 840.515625 783.636719 842.085938 783.664062 C 842.148438 786.484375 842.195312 789.308594 842.222656 792.132812 C 842.234375 793.089844 842.25 794.050781 842.273438 795.007812 C 842.304688 796.390625 842.316406 797.773438 842.328125 799.15625 L 842.367188 800.445312 C 842.367188 802.753906 842.054688 804.019531 840.914062 806.050781 C 839.628906 807.648438 839.628906 807.648438 838.453125 808.484375 C 836.859375 808.972656 835.488281 809.039062 833.824219 809.03125 L 832.09375 809.039062 C 830.304688 808.867188 828.957031 808.394531 827.328125 807.648438 L 827.328125 806.417969 L 825.484375 805.800781 L 825.484375 803.34375 C 829.265625 803.28125 829.265625 803.28125 830.402344 803.34375 L 831.015625 803.957031 C 833.171875 804.058594 833.171875 804.058594 835.324219 803.957031 L 835.9375 803.34375 C 835.960938 802.316406 835.964844 801.292969 835.9375 800.265625 L 834.976562 800.882812 C 832.929688 801.722656 831.371094 801.691406 829.171875 801.496094 C 827.480469 800.84375 827.480469 800.84375 826.097656 799.652344 C 824.683594 797.21875 824.136719 795.347656 824.0625 792.542969 C 824.136719 790.226562 824.597656 788.277344 825.484375 786.121094 L 826.710938 786.121094 L 826.710938 784.890625 C 828.558594 783.664062 828.558594 783.664062 830.007812 783.523438 M 830.519531 788.621094 C 829.621094 789.882812 829.621094 789.882812 829.632812 791.925781 C 829.75 793.59375 829.898438 794.996094 830.402344 796.578125 L 834.707031 797.191406 C 835.714844 796.207031 835.714844 796.207031 836.550781 794.730469 C 836.859375 792.578125 836.859375 792.578125 836.550781 790.425781 C 835.925781 788.890625 835.925781 788.890625 834.707031 787.96875 C 832.957031 787.660156 832.054688 787.71875 830.519531 788.621094 " fill-opacity="1" fill-rule="nonzero"/><path fill="#0f5cfa" d="M 872.222656 777.511719 C 874.214844 777.339844 876.21875 777.371094 878.21875 777.359375 L 879.910156 777.320312 C 882.339844 777.304688 884.101562 777.324219 886.339844 778.328125 L 887.597656 779.355469 L 888.691406 780.152344 C 889.441406 781.203125 889.441406 781.203125 889.730469 783 C 889.78125 788.441406 889.78125 788.441406 888.859375 790.5 C 887.773438 791.875 886.496094 792.808594 885.023438 793.734375 C 882.402344 794.316406 879.816406 794.210938 877.144531 794.117188 L 877.164062 795.574219 L 877.183594 797.460938 L 877.203125 799.34375 L 877.140625 800.882812 L 876.527344 801.496094 C 875.09375 801.523438 873.65625 801.523438 872.222656 801.496094 C 871.25 799.550781 871.519531 797.460938 871.527344 795.324219 L 871.523438 793.847656 C 871.523438 792.8125 871.523438 791.78125 871.527344 790.75 C 871.53125 789.164062 871.527344 787.578125 871.523438 785.992188 C 871.523438 784.988281 871.523438 783.988281 871.527344 782.988281 L 871.523438 781.542969 C 871.527344 780.402344 871.5625 779.265625 871.609375 778.128906 Z M 877.140625 781.816406 L 877.140625 789.8125 C 878.863281 789.925781 880.367188 790.007812 882.0625 789.8125 C 883.730469 788.964844 883.730469 788.964844 884.523438 787.351562 C 884.527344 785.125 884.527344 785.125 883.90625 783.046875 L 882.675781 781.816406 C 880.820312 781.648438 879.007812 781.765625 877.140625 781.816406 " fill-opacity="1" fill-rule="nonzero"/><path fill="#0d5cfb" d="M 735.691406 776.898438 C 737.136719 777.269531 738.574219 777.679688 739.996094 778.128906 L 739.996094 784.277344 L 742.457031 784.890625 L 742.457031 783.664062 C 744.335938 783.476562 746.117188 783.40625 747.992188 783.664062 C 749.835938 785.085938 749.835938 785.085938 751.066406 786.738281 C 751.671875 788.546875 751.753906 789.703125 751.742188 791.589844 L 751.738281 793.335938 L 751.71875 795.15625 L 751.710938 796.996094 C 751.703125 798.496094 751.695312 799.996094 751.683594 801.496094 L 745.53125 801.496094 L 745.53125 788.582031 L 740.613281 788.582031 L 739.996094 801.496094 L 734.460938 801.496094 L 734.460938 777.511719 Z M 848.621094 783.238281 L 850.082031 784.277344 C 851.257812 786.957031 851.820312 789.742188 852.273438 792.617188 L 852.542969 794.117188 L 853.773438 794.730469 L 854.289062 792.621094 L 854.964844 789.890625 L 855.304688 788.5 C 856.164062 785.03125 856.164062 785.03125 856.847656 783.664062 C 858.960938 783.238281 858.960938 783.238281 861.152344 783.046875 L 862.382812 783.664062 C 861.820312 787.765625 860.382812 791.511719 858.964844 795.378906 C 858.503906 796.652344 858.046875 797.929688 857.59375 799.207031 C 857.296875 800.023438 857 800.839844 856.699219 801.65625 L 855.894531 803.886719 C 854.996094 805.816406 854.160156 806.90625 852.542969 808.261719 C 850.378906 809.15625 848.085938 808.921875 845.777344 808.878906 C 845.75 807.648438 845.753906 806.417969 845.777344 805.1875 L 846.390625 804.574219 C 847.417969 804.546875 848.441406 804.546875 849.46875 804.574219 C 849.875 800.425781 848.765625 797.488281 847.199219 793.664062 C 846.125 790.992188 845.335938 788.273438 844.546875 785.507812 L 843.933594 783.664062 C 845.605469 783.183594 846.886719 783.03125 848.621094 783.238281 " fill-opacity="1" fill-rule="nonzero"/><path fill="#0e5dfa" d="M 896.207031 783.664062 C 903.445312 783.214844 903.445312 783.214844 906.1875 784.109375 C 907.160156 784.777344 907.160156 784.777344 908.507812 786.738281 C 909.746094 791.523438 909.007812 796.644531 908.507812 801.496094 C 906.40625 801.53125 904.304688 801.554688 902.203125 801.574219 L 900.398438 801.605469 L 898.65625 801.617188 L 897.058594 801.636719 C 895.460938 801.484375 894.488281 801.109375 893.132812 800.265625 C 892.324219 799.191406 892.324219 799.191406 891.902344 797.808594 C 892.097656 795.4375 892.414062 794.273438 893.746094 792.273438 C 896.566406 791.0625 899.335938 790.738281 902.359375 790.425781 L 902.972656 787.96875 L 900.820312 788.582031 C 898.191406 789.25 895.835938 789.292969 893.132812 789.199219 C 893.285156 787.738281 893.285156 787.738281 893.746094 786.121094 C 895.015625 785.316406 895.015625 785.316406 896.207031 784.890625 Z M 898.667969 793.503906 L 897.4375 796.578125 L 898.050781 797.191406 C 900.601562 797.34375 900.601562 797.34375 902.972656 796.578125 L 902.972656 793.503906 Z M 898.667969 793.503906 " fill-opacity="1" fill-rule="nonzero"/><path fill="#105dfa" d="M 970.621094 783.664062 C 972.773438 784.503906 973.609375 785.40625 975.121094 787.160156 C 976.15625 789.199219 976.15625 789.199219 976.15625 794.117188 L 965.085938 794.730469 L 965.085938 795.960938 C 966.519531 796.195312 967.953125 796.402344 969.390625 796.578125 L 970.007812 795.960938 C 970.941406 795.921875 971.878906 795.910156 972.8125 795.925781 L 974.351562 795.941406 L 975.542969 795.960938 C 975.503906 797.347656 975.503906 797.347656 974.925781 799.039062 C 972.914062 800.65625 971.515625 801.34375 968.984375 801.777344 C 967.175781 801.886719 965.636719 801.847656 963.859375 801.496094 C 962.085938 800.535156 960.742188 799.441406 959.550781 797.808594 C 958.65625 795.222656 958.738281 792.515625 958.9375 789.8125 C 959.539062 787.839844 960.246094 786.621094 961.398438 784.890625 C 964.222656 783.214844 967.441406 783.332031 970.621094 783.664062 M 965.703125 787.96875 L 964.472656 790.425781 C 966.15625 791.269531 967.527344 791.121094 969.390625 791.042969 L 970.621094 790.425781 L 969.390625 787.96875 Z M 965.703125 787.96875 " fill-opacity="1" fill-rule="nonzero"/><path fill="#0f5dfa" d="M 755.988281 783.046875 C 757.792969 783.199219 757.792969 783.199219 759.675781 783.664062 C 760.832031 784.625 760.832031 784.625 761.523438 785.507812 L 761.523438 784.277344 L 762.753906 784.277344 L 762.753906 783.046875 C 765.527344 783.167969 767.703125 783.320312 770.132812 784.738281 C 771.363281 786.121094 771.363281 786.121094 771.742188 787.558594 C 771.96875 789.132812 772.046875 790.601562 772.039062 792.1875 L 772.03125 793.839844 L 772.015625 795.539062 L 772.007812 797.273438 C 772 798.683594 771.988281 800.089844 771.976562 801.496094 L 766.441406 801.496094 L 766.328125 799.007812 L 766.171875 795.769531 L 766.101562 794.128906 L 766.023438 792.546875 L 765.953125 791.09375 C 765.863281 789.695312 765.863281 789.695312 765.210938 787.96875 L 760.90625 789.199219 L 760.859375 790.261719 C 760.789062 791.839844 760.714844 793.421875 760.636719 795 L 760.566406 796.675781 L 760.488281 798.265625 L 760.417969 799.738281 L 760.292969 800.882812 L 759.675781 801.496094 C 758.242188 801.523438 756.808594 801.523438 755.371094 801.496094 C 754.523438 799.796875 754.6875 798.417969 754.695312 796.515625 L 754.703125 794.257812 L 754.71875 791.886719 L 754.726562 789.503906 C 754.734375 787.558594 754.746094 785.609375 754.757812 783.664062 Z M 755.988281 783.046875 " fill-opacity="1" fill-rule="nonzero"/><path fill="#105efb" d="M 700.023438 783.664062 C 701.289062 783.613281 702.558594 783.574219 703.828125 783.546875 L 705.96875 783.480469 C 708.015625 783.664062 708.015625 783.664062 709.816406 784.515625 L 711.09375 785.507812 L 711.09375 786.738281 L 712.324219 786.738281 C 713.308594 789.695312 713.570312 790.960938 712.9375 794.117188 L 701.867188 794.117188 L 702.484375 796.578125 C 705.34375 796.742188 705.34375 796.742188 708.015625 795.960938 C 709.453125 795.9375 710.886719 795.9375 712.324219 795.960938 L 712.9375 797.808594 C 711.925781 799.214844 711.304688 799.96875 709.863281 800.882812 C 706.957031 801.578125 704.054688 801.8125 701.109375 801.222656 C 699.371094 800.578125 698.246094 799.730469 697.023438 798.34375 C 696.070312 795.90625 695.625 793.667969 695.71875 791.042969 C 696.175781 789.277344 696.804688 787.792969 697.5625 786.121094 L 698.792969 786.121094 L 698.792969 784.890625 L 700.023438 784.890625 Z M 702.945312 787.929688 L 701.867188 788.582031 L 701.867188 790.425781 C 703.550781 791.269531 704.925781 791.121094 706.789062 791.042969 L 708.015625 790.425781 C 707.578125 789.1875 707.578125 789.1875 706.789062 787.96875 C 705.1875 787.222656 704.582031 787.246094 702.945312 787.929688 " fill-opacity="1" fill-rule="nonzero"/><path fill="#115dfa" d="M 781.703125 783.414062 C 786.59375 783.269531 786.59375 783.269531 789.054688 784.546875 C 790.292969 785.414062 791.304688 786.191406 792.273438 787.351562 C 793.21875 790.191406 793.128906 792.996094 792.886719 795.960938 C 792.082031 797.949219 791.230469 798.859375 789.699219 800.335938 C 787.96875 801.496094 787.96875 801.496094 785.917969 801.738281 L 783.777344 801.652344 L 781.613281 801.582031 L 779.972656 801.496094 L 779.972656 800.265625 L 778.859375 799.84375 C 777.511719 799.039062 777.511719 799.039062 776.476562 797.691406 C 775.484375 795.570312 775.132812 794.003906 775.050781 791.65625 C 775.601562 789.089844 776.671875 787.089844 778.089844 784.890625 C 779.972656 783.664062 779.972656 783.664062 781.703125 783.414062 M 782.433594 787.96875 C 781.121094 789.195312 781.121094 789.195312 780.585938 791.042969 C 780.632812 793.265625 780.632812 793.265625 781.203125 795.347656 L 782.433594 797.191406 C 784.277344 797.5 784.277344 797.5 786.121094 797.191406 C 787.449219 795.507812 787.449219 795.507812 787.515625 793.867188 L 787.507812 792.234375 L 787.515625 790.597656 L 787.351562 789.199219 L 786.121094 787.96875 C 784.304688 787.609375 784.304688 787.609375 782.433594 787.96875 " fill-opacity="1" fill-rule="nonzero"/><path fill="#0d5cfb" d="M 808.878906 783.664062 C 810.042969 783.613281 811.207031 783.578125 812.375 783.546875 L 814.34375 783.480469 C 816.257812 783.664062 816.257812 783.664062 817.949219 784.519531 C 819.753906 785.808594 820.703125 786.605469 821.792969 788.582031 C 822.105469 791.078125 822.160156 793.472656 821.792969 795.960938 C 820.824219 797.898438 819.988281 799.003906 818.371094 800.460938 C 815.9375 801.652344 814.261719 801.851562 811.585938 801.738281 C 810.109375 801.496094 810.109375 801.496094 807.992188 800.421875 C 806.546875 799.152344 805.554688 798.21875 804.574219 796.578125 C 804.347656 794.675781 804.347656 794.675781 804.378906 792.578125 L 804.386719 790.484375 C 804.5625 788.664062 804.777344 787.621094 805.800781 786.121094 C 807.417969 785.355469 807.417969 785.355469 808.878906 784.890625 Z M 811.335938 787.96875 C 809.976562 789.125 809.976562 789.125 809.644531 790.886719 C 809.472656 793.128906 809.863281 794.519531 810.722656 796.578125 L 811.335938 797.191406 C 813.15625 797.347656 813.15625 797.347656 815.027344 797.191406 L 816.257812 795.960938 C 816.730469 794.128906 816.894531 792.320312 816.871094 790.425781 L 816.21875 788.851562 C 815.019531 787.808594 815.019531 787.808594 813.144531 787.738281 Z M 811.335938 787.96875 " fill-opacity="1" fill-rule="nonzero"/><path fill="#0f5cfa" d="M 677.265625 777.511719 L 696.949219 777.511719 L 696.949219 781.203125 L 696.332031 781.816406 C 695.296875 781.859375 694.257812 781.871094 693.21875 781.855469 L 691.507812 781.839844 L 690.183594 781.816406 L 690.191406 783.558594 C 690.203125 785.679688 690.210938 787.804688 690.214844 789.929688 C 690.21875 790.847656 690.222656 791.769531 690.230469 792.691406 C 690.238281 794.011719 690.238281 795.332031 690.242188 796.652344 L 690.253906 799.0625 L 690.183594 800.882812 L 689.566406 801.496094 C 688.132812 801.523438 686.699219 801.523438 685.261719 801.496094 C 684.378906 799.730469 684.578125 798.214844 684.585938 796.246094 L 684.59375 793.820312 L 684.609375 791.273438 C 684.613281 790.417969 684.617188 789.566406 684.617188 788.710938 C 684.625 786.617188 684.632812 784.527344 684.648438 782.433594 L 683.210938 782.339844 L 681.34375 782.203125 L 679.484375 782.074219 L 677.882812 781.816406 L 676.652344 780.585938 Z M 677.265625 777.511719 " fill-opacity="1" fill-rule="nonzero"/><path fill="#0d5cfb" d="M 996.511719 783.378906 C 997.203125 783.394531 997.894531 783.414062 998.605469 783.433594 L 1000.699219 783.457031 C 1002.519531 783.652344 1003.5625 783.875 1005.0625 784.890625 L 1006.292969 786.738281 L 1006.292969 789.199219 C 1002.960938 789.449219 1000.714844 788.605469 997.683594 787.351562 L 997.683594 791.042969 L 999.566406 790.925781 C 1002.328125 791.058594 1003.839844 791.6875 1006.292969 792.886719 L 1006.292969 794.117188 L 1007.523438 794.117188 C 1007.40625 796.117188 1007.40625 796.117188 1006.90625 798.421875 C 1005.714844 799.882812 1005.714844 799.882812 1003.832031 800.882812 C 1000.992188 801.527344 998.464844 801.65625 995.605469 801.074219 C 993.824219 800.183594 992.714844 799.417969 991.53125 797.808594 C 991.78125 796.496094 991.78125 796.496094 992.148438 795.347656 L 993.25 795.617188 C 995.792969 796.214844 998.128906 796.746094 1000.757812 796.578125 L 1001.371094 794.730469 L 999.6875 794.414062 L 997.492188 793.964844 L 995.308594 793.53125 C 993.378906 792.886719 993.378906 792.886719 992.195312 791.722656 C 991.53125 790.425781 991.53125 790.425781 991.570312 788.273438 C 992.148438 786.121094 992.148438 786.121094 993.164062 784.773438 C 994.605469 783.664062 994.605469 783.664062 996.507812 783.378906 M 727.082031 783.664062 C 729.273438 784.625 729.273438 784.625 730.773438 786.121094 C 731.3125 788.429688 731.3125 788.429688 731.386719 790.425781 C 729.351562 790.542969 729.351562 790.542969 727.082031 790.425781 C 726.082031 789.503906 726.082031 789.503906 725.238281 788.582031 C 723.648438 788.378906 723.648438 788.378906 722.164062 788.582031 L 721.546875 789.199219 C 721.488281 790.195312 721.464844 791.195312 721.46875 792.195312 L 721.464844 793.84375 C 721.484375 795.433594 721.484375 795.433594 722.164062 797.191406 C 723.96875 797.027344 723.96875 797.027344 725.851562 796.578125 L 727.082031 794.730469 C 729.3125 794.617188 729.3125 794.617188 731.386719 794.730469 C 731.8125 795.808594 731.8125 795.808594 732.003906 797.191406 C 731.195312 798.574219 731.195312 798.574219 730.15625 799.652344 L 728.925781 799.652344 L 728.925781 800.882812 C 723.222656 801.738281 723.222656 801.738281 720.820312 801.191406 C 718.863281 800.378906 717.375 799.414062 716.011719 797.808594 C 715.234375 796 714.898438 794.230469 714.78125 792.273438 C 715.316406 789.484375 716.285156 787.25 717.859375 784.890625 C 720.675781 783.21875 723.910156 783.261719 727.082031 783.664062 " fill-opacity="1" fill-rule="nonzero"/><path fill="#3267ea" d="M 587.476562 736.308594 L 589.324219 736.308594 L 588.09375 739.382812 L 586.863281 739.382812 L 586.441406 740.574219 C 585.75 742.179688 584.992188 743.542969 584.09375 745.03125 C 582.113281 748.582031 581.324219 751.890625 581.328125 755.957031 C 581.730469 762.589844 583.589844 767.695312 586.996094 773.316406 C 588.65625 776.0625 588.65625 776.0625 589.046875 777.730469 L 589.324219 778.742188 L 591.167969 779.355469 C 592.117188 780.320312 592.117188 780.320312 593.128906 781.546875 C 596.886719 786.257812 596.886719 786.257812 601.621094 789.8125 L 601.621094 791.042969 L 602.660156 791.503906 C 604.914062 792.722656 606.769531 794.410156 608.734375 796.039062 C 610.027344 797.035156 611.207031 797.761719 612.691406 798.421875 L 612.691406 799.652344 L 614.191406 800.191406 L 615.765625 800.882812 L 616.382812 802.113281 C 615.324219 802.503906 615.324219 802.503906 613.921875 802.726562 C 610.8125 801.527344 608.144531 799.671875 605.925781 797.191406 L 604.699219 796.578125 L 604.699219 795.347656 L 603.660156 794.925781 C 602.238281 794.117188 601.269531 793.203125 600.148438 792.027344 C 598.890625 790.773438 597.546875 789.632812 596.203125 788.464844 C 591.597656 784.34375 587.351562 779.289062 584.402344 773.824219 L 584.402344 771.976562 L 583.171875 771.976562 C 580.449219 765.953125 578.875 760.703125 579.246094 754.046875 C 579.855469 747.953125 582.128906 743.75 585.632812 738.765625 L 586.574219 737.339844 Z M 587.476562 736.308594 " fill-opacity="1" fill-rule="nonzero"/><path fill="#0d5cfb" d="M 978.617188 783.664062 C 979.445312 783.613281 980.269531 783.59375 981.097656 783.601562 L 982.605469 783.609375 L 984.191406 783.625 L 985.78125 783.632812 C 987.082031 783.640625 988.386719 783.652344 989.6875 783.664062 C 989.648438 785.390625 989.648438 785.390625 989.074219 787.351562 C 987.675781 788.269531 986.378906 788.667969 984.765625 789.199219 L 984.71875 790.261719 C 984.648438 791.839844 984.574219 793.421875 984.5 795 L 984.425781 796.675781 L 984.347656 798.265625 L 984.277344 799.738281 L 984.152344 800.882812 L 983.539062 801.496094 C 982.601562 801.542969 981.667969 801.550781 980.730469 801.535156 L 979.191406 801.519531 L 978.003906 801.496094 C 977.988281 799.054688 977.976562 796.613281 977.96875 794.175781 C 977.964844 793.34375 977.960938 792.511719 977.957031 791.679688 C 977.949219 790.488281 977.945312 789.296875 977.941406 788.105469 L 977.933594 785.925781 L 978.003906 784.277344 Z M 797.808594 776.898438 C 799.5 777.128906 799.5 777.128906 800.882812 777.511719 C 800.898438 780.828125 800.910156 784.144531 800.917969 787.464844 C 800.917969 788.59375 800.921875 789.722656 800.929688 790.851562 C 800.9375 792.472656 800.941406 794.089844 800.941406 795.710938 L 800.953125 797.25 C 800.953125 798.460938 800.921875 799.671875 800.882812 800.882812 L 800.265625 801.496094 L 795.347656 801.496094 L 795.347656 778.128906 Z M 797.808594 776.898438 " fill-opacity="1" fill-rule="nonzero"/><path fill="#105dfa" d="M 916.167969 783.152344 L 917.464844 783.238281 L 918.765625 783.304688 C 919.859375 783.378906 920.949219 783.515625 922.039062 783.664062 L 922.652344 784.890625 L 922.039062 787.351562 L 917.117188 788.582031 L 917.128906 789.703125 C 917.140625 791.367188 917.148438 793.03125 917.15625 794.695312 L 917.171875 796.457031 L 917.179688 798.132812 L 917.1875 799.683594 L 917.117188 800.882812 L 916.503906 801.496094 L 910.96875 801.496094 L 911.582031 783.664062 C 913.15625 782.875 914.445312 783.050781 916.167969 783.152344 " fill-opacity="1" fill-rule="nonzero"/><path fill="#2771ec" d="M 535.203125 760.90625 L 536.433594 761.523438 C 535.589844 763.335938 534.664062 764.921875 533.359375 766.441406 L 532.128906 766.441406 L 531.511719 768.902344 L 530.28125 768.902344 L 530.066406 770.007812 C 529.542969 771.78125 528.464844 772.996094 527.378906 774.460938 C 526.054688 776.496094 525.371094 778.710938 524.632812 781.011719 C 524.328125 781.921875 524.027344 782.835938 523.722656 783.746094 L 523.300781 785.007812 C 522.855469 786.246094 522.316406 787.4375 521.671875 788.582031 L 519.828125 787.96875 C 521.890625 779.433594 526.480469 770.714844 532.128906 763.980469 L 533.359375 763.980469 L 533.933594 762.792969 C 534.585938 761.523438 534.585938 761.523438 535.203125 760.90625 M 599.777344 789.8125 L 601.621094 789.8125 L 601.621094 791.042969 L 602.660156 791.503906 C 604.914062 792.722656 606.769531 794.410156 608.734375 796.039062 C 610.027344 797.035156 611.207031 797.761719 612.691406 798.421875 L 612.691406 799.652344 L 614.191406 800.191406 L 615.765625 800.882812 L 616.382812 802.113281 C 615.324219 802.503906 615.324219 802.503906 613.921875 802.726562 C 610.8125 801.527344 608.144531 799.671875 605.925781 797.191406 L 604.699219 796.578125 L 604.699219 795.347656 L 603.621094 794.886719 C 602.023438 794 600.960938 793.050781 599.777344 791.65625 Z M 599.777344 789.8125 " fill-opacity="1" fill-rule="nonzero"/><path fill="#599aef" d="M 587.476562 736.308594 L 589.324219 736.308594 L 588.09375 739.382812 L 586.863281 739.382812 L 586.441406 740.574219 C 585.632812 742.457031 585.632812 742.457031 584.929688 743.570312 C 582.234375 747.867188 581.511719 752.285156 580.710938 757.21875 L 579.484375 757.21875 C 579.277344 752.980469 579.648438 749.457031 581.328125 745.53125 C 582.644531 743.191406 584.089844 740.964844 585.632812 738.765625 L 586.574219 737.339844 Z M 587.476562 736.308594 " fill-opacity="1" fill-rule="nonzero"/><path fill="#2670ec" d="M 963.242188 789.199219 L 964.472656 789.199219 L 964.472656 790.425781 L 965.53125 790.652344 C 967.847656 791.15625 970.128906 791.675781 972.390625 792.386719 L 974.3125 792.886719 L 976.15625 792.273438 L 976.15625 794.117188 L 973.800781 794.230469 L 970.738281 794.386719 L 969.183594 794.460938 L 967.6875 794.539062 L 966.3125 794.605469 C 964.960938 794.699219 964.960938 794.699219 963.242188 795.347656 L 963.589844 793.308594 C 964.015625 791.082031 964.015625 791.082031 963.242188 789.199219 " fill-opacity="1" fill-rule="nonzero"/><path fill="#2771ec" d="M 556.113281 776.28125 L 557.34375 776.28125 C 557.773438 777.972656 558.195312 779.664062 558.609375 781.355469 L 558.980469 782.804688 L 559.324219 784.210938 L 559.644531 785.5 C 559.820312 786.890625 559.605469 787.867188 559.1875 789.199219 L 557.34375 788.582031 C 555.863281 784.886719 555.578125 780.855469 555.496094 776.898438 Z M 556.113281 776.28125 " fill-opacity="1" fill-rule="nonzero"/><path fill="#599aef" d="M 551.808594 747.378906 L 553.652344 747.992188 C 552.320312 749.988281 551.429688 750.570312 549.347656 751.683594 C 548.332031 752.113281 547.304688 752.523438 546.273438 752.914062 L 546.273438 754.140625 C 545.195312 755.070312 545.195312 755.070312 543.8125 756.0625 L 542.429688 757.070312 L 541.351562 757.832031 L 539.507812 756.601562 L 540.738281 756.601562 L 540.738281 755.371094 C 541.5625 754.796875 542.398438 754.238281 543.246094 753.703125 C 545.164062 752.417969 546.917969 750.929688 548.699219 749.460938 L 549.960938 748.605469 L 551.808594 748.605469 Z M 551.808594 747.378906 " fill-opacity="1" fill-rule="nonzero"/><path fill="#2f66eb" d="M 646.515625 804.574219 L 647.746094 805.800781 C 644.859375 807.949219 642.023438 809.238281 638.523438 810.105469 C 636.640625 810.222656 636.640625 810.222656 635.449219 810.105469 C 636.140625 809.222656 636.140625 809.222656 637.292969 808.261719 C 638.519531 808.046875 639.75 807.839844 640.984375 807.648438 C 642.96875 806.75 644.703125 805.78125 646.515625 804.574219 " fill-opacity="1" fill-rule="nonzero"/><path fill="#2771ec" d="M 556.726562 762.136719 L 558.574219 762.753906 L 557.957031 764.289062 C 557.238281 766.804688 557.253906 768.761719 557.34375 771.363281 L 555.496094 771.363281 C 555.582031 769.941406 555.671875 768.519531 555.765625 767.097656 C 555.816406 766.304688 555.867188 765.511719 555.917969 764.695312 L 556.113281 762.753906 Z M 556.726562 762.136719 " fill-opacity="1" fill-rule="nonzero"/><path fill="#3267ea" d="M 942.949219 789.8125 L 944.175781 789.8125 L 944.175781 801.496094 L 942.332031 800.882812 Z M 915.886719 790.425781 L 917.117188 790.425781 L 917.117188 800.882812 L 915.273438 800.882812 Z M 587.476562 710.476562 C 588.59375 710.632812 588.59375 710.632812 589.9375 711.09375 L 590.667969 712.359375 L 591.78125 713.550781 C 593.644531 713.773438 595.453125 713.691406 597.316406 713.550781 C 595.535156 714.742188 594.921875 714.96875 592.898438 715.167969 L 590.550781 715.398438 L 590.015625 713.898438 L 589.324219 712.324219 L 588.09375 711.707031 Z M 587.476562 710.476562 " fill-opacity="1" fill-rule="nonzero"/><path fill="#599aef" d="M 586.246094 728.3125 C 587.363281 728.464844 587.363281 728.464844 588.707031 728.925781 C 589.785156 729.964844 589.785156 729.964844 590.550781 731.386719 C 590.667969 733.386719 590.667969 733.386719 590.550781 735.078125 L 588.707031 735.078125 L 588.515625 733.078125 C 588.25 730.808594 588.25 730.808594 587.132812 729.273438 Z M 586.246094 728.3125 " fill-opacity="1" fill-rule="nonzero"/><path fill="#2f66eb" d="M 505.683594 741.84375 L 505.683594 743.074219 L 497.074219 744.300781 L 496.457031 743.074219 C 499.671875 742.171875 502.351562 741.703125 505.683594 741.84375 " fill-opacity="1" fill-rule="nonzero"/><path fill="#3267ea" d="M 701.253906 792.273438 L 707.402344 792.886719 L 707.402344 794.117188 L 701.867188 794.117188 L 701.867188 795.347656 L 700.636719 795.347656 Z M 701.253906 792.273438 " fill-opacity="1" fill-rule="nonzero"/><path fill="#2771ec" d="M 560.417969 752.914062 L 562.261719 752.914062 C 561.457031 755.332031 560.464844 756.742188 558.574219 758.449219 C 558.457031 757.0625 558.457031 757.0625 558.574219 755.371094 C 559.378906 753.949219 559.378906 753.949219 560.417969 752.914062 " fill-opacity="1" fill-rule="nonzero"/><path fill="#3267ea" d="M 683.417969 779.972656 L 685.261719 781.203125 L 684.648438 781.816406 C 683.507812 781.863281 682.367188 781.867188 681.226562 781.855469 L 679.339844 781.839844 L 677.882812 781.816406 L 677.882812 780.585938 C 678.765625 780.449219 679.648438 780.324219 680.535156 780.203125 L 682.027344 779.988281 Z M 683.417969 779.972656 " fill-opacity="1" fill-rule="nonzero"/><path fill="#2771ec" d="M 696.949219 779.972656 L 696.332031 781.816406 L 690.796875 781.816406 L 690.183594 780.585938 C 691.078125 780.484375 691.976562 780.382812 692.875 780.28125 L 694.386719 780.105469 C 695.71875 779.972656 695.71875 779.972656 696.949219 779.972656 " fill-opacity="1" fill-rule="nonzero"/><path fill="#3267ea" d="M 478.621094 752.296875 L 479.851562 752.296875 C 479.148438 754.085938 478.5 754.863281 477.007812 756.140625 L 475.546875 757.21875 L 475.546875 755.371094 C 477.007812 753.71875 477.007812 753.71875 478.621094 752.296875 " fill-opacity="1" fill-rule="nonzero"/><path fill="#599aef" d="M 506.296875 732.003906 L 507.527344 732.003906 L 507.527344 736.308594 L 508.757812 736.921875 L 507.527344 737.539062 C 506.566406 736.84375 506.566406 736.84375 505.683594 735.691406 C 505.875 733.730469 505.875 733.730469 506.296875 732.003906 " fill-opacity="1" fill-rule="nonzero"/><path fill="#3066ea" d="M 545.042969 696.332031 L 545.042969 697.5625 L 539.507812 698.175781 L 538.890625 696.949219 C 541.027344 696.234375 542.804688 696.289062 545.042969 696.332031 " fill-opacity="1" fill-rule="nonzero"/><path fill="#2771ec" d="M 579.484375 757.21875 L 581.328125 757.21875 L 581.328125 760.90625 L 579.484375 761.523438 Z M 579.484375 757.21875 " fill-opacity="1" fill-rule="nonzero"/><path fill="#3267ea" d="M 657.585938 771.976562 C 658.816406 773.824219 658.816406 773.824219 659.011719 775.398438 L 658.816406 776.898438 L 656.972656 778.128906 C 656.957031 777.21875 656.941406 776.308594 656.933594 775.398438 L 656.914062 773.863281 L 656.972656 772.59375 Z M 657.585938 771.976562 " fill-opacity="1" fill-rule="nonzero"/><path fill="#2771ec" d="M 521.671875 800.882812 L 522.902344 800.882812 L 523.515625 803.957031 L 525.363281 804.574219 L 522.902344 805.1875 L 521.671875 803.34375 Z M 521.671875 800.882812 " fill-opacity="1" fill-rule="nonzero"/><path fill="#599aef" d="M 559.800781 742.457031 L 561.03125 743.074219 L 561.03125 744.300781 L 557.957031 745.53125 L 556.726562 744.300781 C 558.1875 743.339844 558.1875 743.339844 559.800781 742.457031 M 555.496094 744.917969 L 557.34375 745.53125 L 556.113281 747.378906 C 554.5 747.492188 554.5 747.492188 553.039062 747.378906 L 553.652344 746.148438 L 555.496094 746.148438 Z M 571.488281 742.457031 L 573.332031 743.074219 L 572.101562 744.917969 L 570.257812 744.917969 L 570.257812 743.6875 L 571.488281 743.6875 Z M 571.488281 742.457031 " fill-opacity="1" fill-rule="nonzero"/><path fill="#2771ec" d="M 536.433594 759.675781 L 537.664062 760.292969 L 537.046875 761.523438 L 535.816406 760.292969 Z M 537.664062 758.449219 L 538.890625 759.0625 L 538.277344 760.292969 L 537.046875 759.0625 Z M 538.890625 757.21875 L 540.121094 757.832031 L 539.507812 759.0625 L 538.277344 757.832031 Z M 538.890625 757.21875 " fill-opacity="1" fill-rule="nonzero"/><path fill="#599aef" d="M 573.332031 741.226562 L 574.5625 742.457031 L 572.71875 741.84375 Z M 573.332031 741.226562 " fill-opacity="1" fill-rule="nonzero"/></svg>