<svg version="1.1" id="Layer_1" xmlns="http://www.w3.org/2000/svg" xmlns:xlink="http://www.w3.org/1999/xlink" x="0px" y="0px"
	 width="100%" viewBox="0 0 1254 1254" enable-background="new 0 0 1254 1254" xml:space="preserve">
<path fill="#FEFEFE" opacity="1.000000" stroke="none" 
	d="
M576.000000,1255.000000 
	C384.000000,1255.000000 192.500000,1255.000000 1.000000,1255.000000 
	C1.000000,837.000000 1.000000,419.000000 1.000000,1.000000 
	C419.000000,1.000000 837.000000,1.000000 1255.000000,1.000000 
	C1255.000000,419.000000 1255.000000,837.000000 1255.000000,1255.000000 
	C1028.833374,1255.000000 802.666687,1255.000000 576.000000,1255.000000 
M617.349731,897.502502 
	C617.896912,897.759399 618.444519,898.241516 618.991150,898.240356 
	C633.668396,898.208313 648.345520,898.126587 663.746216,898.270142 
	C664.490540,898.198303 665.234863,898.126465 666.905640,898.231567 
	C700.613281,898.246460 734.320862,898.266968 768.028503,898.255127 
	C769.325317,898.254700 770.621948,897.942688 772.514038,897.432373 
	C793.057556,847.222717 813.613403,797.018127 834.140564,746.801758 
	C849.126282,710.141479 864.167908,673.503540 878.944763,636.759155 
	C881.351624,630.774414 885.069824,627.550171 891.217102,625.712524 
	C919.710876,617.194275 948.094727,608.308167 976.510864,599.531067 
	C981.582031,597.964722 986.619812,596.290588 992.673828,594.344482 
	C990.489441,593.613281 989.433167,593.123657 988.323730,592.908752 
	C972.865173,589.914185 957.490295,586.264832 941.905579,584.217102 
	C930.127258,582.669434 917.906982,581.737366 906.192200,583.129700 
	C890.579651,584.985291 875.334961,589.734009 859.810608,592.575684 
	C828.587952,598.290771 805.791687,616.532288 788.610718,641.784546 
	C742.262878,709.905457 696.594482,778.489014 650.736145,846.942444 
	C639.636658,863.510742 628.845093,880.285339 617.349731,897.502502 
M785.864685,582.123230 
	C792.430237,579.782837 798.953308,577.310791 805.583557,575.170837 
	C808.020386,574.384399 810.751953,573.895691 813.277954,574.109863 
	C822.863586,574.922852 832.418091,576.099182 841.988037,577.102905 
	C862.362793,579.239929 882.571960,576.865845 902.832275,574.916931 
	C901.624268,574.277893 900.409058,573.810425 899.155945,573.661194 
	C888.136780,572.349487 877.136658,570.423950 866.080139,569.997803 
	C853.204224,569.501465 840.268799,570.131958 827.375732,570.669678 
	C820.804871,570.943787 814.255310,572.797241 807.722717,572.661438 
	C798.795959,572.475708 789.894592,571.074646 780.115723,569.890076 
	C764.663513,569.891357 749.207520,569.673645 733.760071,569.945557 
	C711.191833,570.342896 690.221436,576.923523 670.366455,587.330444 
	C647.203796,599.470947 627.209045,616.124878 607.056824,632.461243 
	C557.144836,672.922302 507.485229,713.694458 457.680969,754.288513 
	C415.486877,788.679810 373.214569,822.975098 331.013306,857.357605 
	C314.899597,870.485901 298.887177,883.738647 282.113983,897.385071 
	C283.442993,897.692200 284.771851,898.267456 286.101013,898.268127 
	C354.576202,898.300110 423.051392,898.285217 491.526611,898.258789 
	C493.012787,898.258179 494.498901,898.065979 496.662506,897.882568 
	C497.567505,896.906372 498.527130,895.975037 499.369659,894.947571 
	C525.348694,863.267822 551.287903,831.555298 577.293518,799.897339 
	C605.094116,766.054199 632.832153,732.158386 660.837646,698.485229 
	C677.238708,678.764954 694.050293,659.384399 710.787170,639.945679 
	C722.510132,626.330322 733.575317,611.843567 748.866943,602.026428 
	C760.419495,594.609802 772.979858,588.763062 785.864685,582.123230 
M315.794800,767.704651 
	C317.967926,769.501526 320.141083,771.298401 322.467957,773.222412 
	C341.567108,759.314209 360.505341,745.523132 379.886139,731.409790 
	C378.020935,730.163330 376.442108,729.274414 375.051605,728.152161 
	C365.892242,720.759827 355.959259,714.113647 347.782501,705.753235 
	C312.669006,669.851135 305.941833,614.676819 330.659882,570.887390 
	C356.355865,525.365479 408.468079,500.658539 459.790558,509.866943 
	C468.720856,511.469238 477.507507,513.872192 486.561157,515.951416 
	C487.802887,509.415009 488.872711,503.059692 490.228516,496.765961 
	C497.905426,461.129852 513.807373,429.602692 540.937683,405.160248 
	C585.402283,365.100830 637.478088,350.564972 695.410522,367.844666 
	C755.849731,385.872040 792.574768,428.163635 808.980957,488.520172 
	C811.137390,496.453339 812.182312,504.688690 813.850281,513.346252 
	C818.295532,512.925964 822.713867,512.260864 827.147949,512.129272 
	C855.434692,511.290131 883.281311,514.263916 910.445496,522.429871 
	C914.061646,523.516968 916.966431,523.029358 920.395630,521.679810 
	C935.080627,515.900635 949.797974,510.154663 964.743835,505.108459 
	C972.320679,502.550232 980.408325,501.504791 989.572876,499.487549 
	C979.576599,493.018280 970.681335,486.917206 961.459412,481.358032 
	C933.938904,464.767883 903.921936,455.483307 872.074585,452.362244 
	C866.778015,451.843170 864.826355,450.242493 863.260376,445.496094 
	C848.341309,400.276672 821.195251,363.771545 782.877075,335.820007 
	C737.147034,302.461731 685.612183,288.837891 629.409302,294.024811 
	C578.242859,298.746887 533.921692,319.431000 496.507782,354.559265 
	C472.156433,377.422943 453.627075,404.371796 442.088165,435.884064 
	C441.152222,438.440125 439.903320,439.380280 437.099548,439.481171 
	C428.989655,439.772949 420.825195,439.996307 412.806061,441.125916 
	C365.861328,447.738556 326.636658,469.135284 295.972748,505.066467 
	C261.447418,545.522400 245.572037,592.706116 251.022644,645.898682 
	C256.026550,694.732178 278.484741,734.920654 315.794800,767.704651 
z"/>
<path fill="#135CF6" opacity="1.000000" stroke="none" 
	d="
M315.532715,767.465088 
	C278.484741,734.920654 256.026550,694.732178 251.022644,645.898682 
	C245.572037,592.706116 261.447418,545.522400 295.972748,505.066467 
	C326.636658,469.135284 365.861328,447.738556 412.806061,441.125916 
	C420.825195,439.996307 428.989655,439.772949 437.099548,439.481171 
	C439.903320,439.380280 441.152222,438.440125 442.088165,435.884064 
	C453.627075,404.371796 472.156433,377.422943 496.507782,354.559265 
	C533.921692,319.431000 578.242859,298.746887 629.409302,294.024811 
	C685.612183,288.837891 737.147034,302.461731 782.877075,335.820007 
	C821.195251,363.771545 848.341309,400.276672 863.260376,445.496094 
	C864.826355,450.242493 866.778015,451.843170 872.074585,452.362244 
	C903.921936,455.483307 933.938904,464.767883 961.459412,481.358032 
	C970.681335,486.917206 979.576599,493.018280 989.572876,499.487549 
	C980.408325,501.504791 972.320679,502.550232 964.743835,505.108459 
	C949.797974,510.154663 935.080627,515.900635 920.395630,521.679810 
	C916.966431,523.029358 914.061646,523.516968 910.445496,522.429871 
	C883.281311,514.263916 855.434692,511.290131 827.147949,512.129272 
	C822.713867,512.260864 818.295532,512.925964 813.850281,513.346252 
	C812.182312,504.688690 811.137390,496.453339 808.980957,488.520172 
	C792.574768,428.163635 755.849731,385.872040 695.410522,367.844666 
	C637.478088,350.564972 585.402283,365.100830 540.937683,405.160248 
	C513.807373,429.602692 497.905426,461.129852 490.228516,496.765961 
	C488.872711,503.059692 487.802887,509.415009 486.561157,515.951416 
	C477.507507,513.872192 468.720856,511.469238 459.790558,509.866943 
	C408.468079,500.658539 356.355865,525.365479 330.659882,570.887390 
	C305.941833,614.676819 312.669006,669.851135 347.782501,705.753235 
	C355.959259,714.113647 365.892242,720.759827 375.051605,728.152161 
	C376.442108,729.274414 378.020935,730.163330 379.886139,731.409790 
	C360.505341,745.523132 341.567108,759.314209 322.467957,773.222412 
	C320.141083,771.298401 317.967926,769.501526 315.532715,767.465088 
z"/>
<path fill="#125BF7" opacity="1.000000" stroke="none" 
	d="
M282.828613,896.934692 
	C298.887177,883.738647 314.899597,870.485901 331.013306,857.357605 
	C373.214569,822.975098 415.486877,788.679810 457.680969,754.288513 
	C507.485229,713.694458 557.144836,672.922302 607.056824,632.461243 
	C627.209045,616.124878 647.203796,599.470947 670.366455,587.330444 
	C690.221436,576.923523 711.191833,570.342896 733.760071,569.945557 
	C749.207520,569.673645 764.663513,569.891357 780.554688,570.435181 
	C782.359680,574.726074 783.725708,578.471802 785.091675,582.217590 
	C772.979858,588.763062 760.419495,594.609802 748.866943,602.026428 
	C733.575317,611.843567 722.510132,626.330322 710.787170,639.945679 
	C694.050293,659.384399 677.238708,678.764954 660.837646,698.485229 
	C632.832153,732.158386 605.094116,766.054199 577.293518,799.897339 
	C551.287903,831.555298 525.348694,863.267822 499.369659,894.947571 
	C498.527130,895.975037 497.567505,896.906372 496.025085,897.634033 
	C493.410645,897.259155 491.433685,897.023499 489.456635,897.022278 
	C420.580627,896.979370 351.704620,896.958618 282.828613,896.934692 
z"/>
<path fill="#125CF7" opacity="1.000000" stroke="none" 
	d="
M665.979187,898.054688 
	C665.234863,898.126465 664.490540,898.198303 663.096924,897.853882 
	C660.654846,897.293274 658.862549,897.030457 657.069336,897.023804 
	C644.016968,896.975281 630.964417,896.978271 617.911926,896.965027 
	C628.845093,880.285339 639.636658,863.510742 650.736145,846.942444 
	C696.594482,778.489014 742.262878,709.905457 788.610718,641.784546 
	C805.791687,616.532288 828.587952,598.290771 859.810608,592.575684 
	C875.334961,589.734009 890.579651,584.985291 906.192200,583.129700 
	C917.906982,581.737366 930.127258,582.669434 941.905579,584.217102 
	C957.490295,586.264832 972.865173,589.914185 988.323730,592.908752 
	C989.433167,593.123657 990.489441,593.613281 992.673828,594.344482 
	C986.619812,596.290588 981.582031,597.964722 976.510864,599.531067 
	C948.094727,608.308167 919.710876,617.194275 891.217102,625.712524 
	C885.069824,627.550171 881.351624,630.774414 878.944763,636.759155 
	C864.167908,673.503540 849.126282,710.141479 834.140564,746.801758 
	C813.613403,797.018127 793.057556,847.222717 771.896240,897.353760 
	C770.956909,897.196594 770.635498,897.049377 770.313965,897.049194 
	C736.750671,897.026672 703.187439,897.004211 669.624207,897.047546 
	C668.408813,897.049072 667.194153,897.704163 665.979187,898.054688 
z"/>
<path fill="#2165F3" opacity="1.000000" stroke="none" 
	d="
M785.478149,582.170410 
	C783.725708,578.471802 782.359680,574.726074 780.988037,570.587402 
	C789.894592,571.074646 798.795959,572.475708 807.722717,572.661438 
	C814.255310,572.797241 820.804871,570.943787 827.375732,570.669678 
	C840.268799,570.131958 853.204224,569.501465 866.080139,569.997803 
	C877.136658,570.423950 888.136780,572.349487 899.155945,573.661194 
	C900.409058,573.810425 901.624268,574.277893 902.832275,574.916931 
	C882.571960,576.865845 862.362793,579.239929 841.988037,577.102905 
	C832.418091,576.099182 822.863586,574.922852 813.277954,574.109863 
	C810.751953,573.895691 808.020386,574.384399 805.583557,575.170837 
	C798.953308,577.310791 792.430237,579.782837 785.478149,582.170410 
M795.758972,573.365479 
	C795.829834,573.838623 795.900696,574.311829 795.971497,574.784912 
	C796.386841,574.714111 796.802185,574.643250 797.217529,574.572449 
	C796.917358,574.146057 796.617188,573.719666 795.758972,573.365479 
M800.376282,574.524658 
	C800.160339,574.468811 799.944458,574.412964 799.728516,574.357117 
	C799.867798,574.495239 800.007019,574.633423 800.376282,574.524658 
z"/>
<path fill="#004AF3" opacity="1.000000" stroke="none" 
	d="
M282.471313,897.159912 
	C351.704620,896.958618 420.580627,896.979370 489.456635,897.022278 
	C491.433685,897.023499 493.410645,897.259155 495.686340,897.674316 
	C494.498901,898.065979 493.012787,898.258179 491.526611,898.258789 
	C423.051392,898.285217 354.576202,898.300110 286.101013,898.268127 
	C284.771851,898.267456 283.442993,897.692200 282.471313,897.159912 
z"/>
<path fill="#004AF3" opacity="1.000000" stroke="none" 
	d="
M666.442383,898.143066 
	C667.194153,897.704163 668.408813,897.049072 669.624207,897.047546 
	C703.187439,897.004211 736.750671,897.026672 770.313965,897.049194 
	C770.635498,897.049377 770.956909,897.196594 771.598572,897.525513 
	C770.621948,897.942688 769.325317,898.254700 768.028503,898.255127 
	C734.320862,898.266968 700.613281,898.246460 666.442383,898.143066 
z"/>
<path fill="#004AF3" opacity="1.000000" stroke="none" 
	d="
M617.630859,897.233765 
	C630.964417,896.978271 644.016968,896.975281 657.069336,897.023804 
	C658.862549,897.030457 660.654846,897.293274 662.735107,897.745422 
	C648.345520,898.126587 633.668396,898.208313 618.991150,898.240356 
	C618.444519,898.241516 617.896912,897.759399 617.630859,897.233765 
z"/>
<path fill="#125BF7" opacity="1.000000" stroke="none" 
	d="
M796.038025,573.329346 
	C796.617188,573.719666 796.917358,574.146057 797.217529,574.572388 
	C796.802185,574.643250 796.386841,574.714111 795.971558,574.784912 
	C795.900696,574.311829 795.829834,573.838623 796.038025,573.329346 
z"/>
<path fill="#125BF7" opacity="1.000000" stroke="none" 
	d="
M800.261292,574.648071 
	C800.007019,574.633423 799.867798,574.495239 799.728516,574.357117 
	C799.944458,574.412964 800.160339,574.468811 800.261292,574.648071 
z"/>
</svg>